<?xml version="1.0" encoding="UTF-8" standalone="no"?>
<!DOCTYPE svg PUBLIC "-//W3C//DTD SVG 1.1//EN"
 "http://www.w3.org/Graphics/SVG/1.1/DTD/svg11.dtd">
<!-- Generated by graphviz version 15.0.0 (20260523.1842)
 -->
<!-- Title: G Pages: 1 -->
<svg width="255pt" height="109pt"
 viewBox="0.00 0.00 255.00 109.00" xmlns="http://www.w3.org/2000/svg" xmlns:xlink="http://www.w3.org/1999/xlink">
<g id="graph0" class="graph" transform="scale(1 1) rotate(0) translate(21.6 87.35)">
<title>G</title>
<polygon fill="#111111" stroke="none" points="-21.6,21.6 -21.6,-87.35 233.35,-87.35 233.35,21.6 -21.6,21.6"/>
<!-- public/audio&#45;worklet&#45;processor.js -->
<g id="node1" class="node">
<title>public/audio&#45;worklet&#45;processor.js</title>
<path fill="none" stroke="#cfffac" d="M203.83,-23.75C203.83,-23.75 7.92,-23.75 7.92,-23.75 3.96,-23.75 0,-19.79 0,-15.83 0,-15.83 0,-7.92 0,-7.92 0,-3.96 3.96,0 7.92,0 7.92,0 203.83,0 203.83,0 207.79,0 211.75,-3.96 211.75,-7.92 211.75,-7.92 211.75,-15.83 211.75,-15.83 211.75,-19.79 207.79,-23.75 203.83,-23.75"/>
<text xml:space="preserve" text-anchor="middle" x="105.88" y="-6.45" font-family="Arial" font-size="14.00" fill="#cfffac">public/audio&#45;worklet&#45;processor.js</text>
</g>
<!-- test.js -->
<g id="node2" class="node">
<title>test.js</title>
<path fill="none" stroke="#cfffac" d="M124.96,-65.75C124.96,-65.75 86.79,-65.75 86.79,-65.75 82.83,-65.75 78.88,-61.79 78.88,-57.83 78.88,-57.83 78.88,-49.92 78.88,-49.92 78.88,-45.96 82.83,-42 86.79,-42 86.79,-42 124.96,-42 124.96,-42 128.92,-42 132.88,-45.96 132.88,-49.92 132.88,-49.92 132.88,-57.83 132.88,-57.83 132.88,-61.79 128.92,-65.75 124.96,-65.75"/>
<text xml:space="preserve" text-anchor="middle" x="105.88" y="-48.45" font-family="Arial" font-size="14.00" fill="#cfffac">test.js</text>
</g>
</g>
</svg>
