<svg width="435" height="435" viewBox="0 0 435 435" fill="none" xmlns="http://www.w3.org/2000/svg">
<path d="M33.1433 99.9257C43.5966 -31.273 397.616 36.9053 411.966 122.297C417.909 210.615 410.307 257.166 344.852 326.126C248.434 379.733 188.417 376.227 71.4233 313.697C71.4233 313.697 22.69 231.124 33.1433 99.9257Z" fill="url(#paint0_linear_9_19)"/>
<path d="M111.347 10.8933C67.8802 25.2019 38.7036 49.2403 17.8632 88.732C1.19088 120.783 0 125.934 0 191.182C0 255.284 1.19088 262.725 16.0769 289.625C36.3219 326.827 73.2392 357.734 112.538 369.753C133.974 376.049 150.646 386.923 170.296 406.955C189.946 426.987 202.45 435 213.168 435C228.649 435 253.062 417.83 253.062 406.955C253.062 404.093 267.353 400.087 284.621 398.37C345.356 390.357 392.991 358.878 416.808 311.374C431.694 281.039 440.031 195.76 431.694 156.269C420.976 107.619 378.7 60.1148 320.942 31.4976C254.849 -1.126 171.487 -9.13877 111.347 10.8933ZM246.512 34.9317C309.034 48.6679 371.555 91.5937 393.586 136.237C418.595 186.03 398.35 255.856 349.524 288.48C329.279 302.216 316.179 306.223 281.643 308.512C239.367 311.946 238.176 312.518 229.84 330.261C225.077 340.563 219.122 349.148 216.74 349.148C213.763 349.148 201.854 337.702 189.35 323.393C172.678 303.933 159.578 295.348 135.165 287.908C71.4529 268.448 31.5584 219.226 31.5584 159.703C31.5584 99.6065 65.4985 54.3914 123.256 37.2211C154.219 28.0635 210.786 26.9189 246.512 34.9317Z" fill="black"/>
<path d="M94.1266 104.035C82.2178 122.35 81.0269 153.257 91.7448 165.848C103.058 179.012 125.685 177.295 136.403 162.414C149.503 144.672 148.312 136.659 132.83 132.652L119.135 129.218L132.83 120.633C143.548 113.193 144.739 109.186 139.976 100.029C130.448 84.0031 106.631 86.2924 94.1266 104.035Z" fill="black"/>
<path d="M183.396 117.922C171.487 136.237 170.296 167.143 181.014 179.735C192.327 192.899 214.954 191.182 225.672 176.301C238.771 158.558 237.581 150.545 222.099 146.539L208.404 143.105L222.099 134.52C232.817 127.079 234.008 123.073 229.244 113.915C219.717 97.8895 195.9 100.179 183.396 117.922Z" fill="black"/>
<defs>
<linearGradient id="paint0_linear_9_19" x1="217.5" y1="0" x2="217.5" y2="435" gradientUnits="userSpaceOnUse">
<stop stop-color="white"/>
<stop offset="1" stop-color="#F8F6F6" stop-opacity="0"/>
</linearGradient>
</defs>
</svg>
